<svg width="100" height="44" viewBox="0 0 100 44" fill="none" xmlns="http://www.w3.org/2000/svg">
<path d="M3.00581 6.0541e-08L71.5058 0.999999L70.3783 23.9855L1.55276e-06 19.2453L3.00581 6.0541e-08Z" fill="#E1B5FF"/>
<path d="M22.5424 20.7636L96.5058 20.7636L100.006 43.5L26.3205 42.5L22.5424 20.7636Z" fill="#E1B5FF"/>
<path d="M33.3663 37.0945C32.5298 37.0949 31.8021 36.9048 31.1831 36.5243C30.5641 36.1328 30.0809 35.5943 29.7336 34.9089C29.3864 34.2234 29.213 33.4345 29.2134 32.5421C29.2139 31.6388 29.3827 30.8443 29.7198 30.1585C30.0678 29.4618 30.5569 28.9174 31.1872 28.5253C31.8284 28.1223 32.5835 27.9205 33.4525 27.9201C34.1913 27.9197 34.8267 28.0663 35.3588 28.3599C35.9019 28.6425 36.3253 29.045 36.6292 29.5672C36.944 30.0894 37.1066 30.7151 37.1171 31.4443L34.8684 31.4454C34.8577 31.021 34.7221 30.6728 34.4616 30.4009C34.2118 30.1181 33.8697 29.9768 33.4352 29.977C33.0767 29.9772 32.7562 30.0862 32.4736 30.304C32.2019 30.5109 31.9899 30.8048 31.8376 31.1858C31.6854 31.5559 31.6091 32.0022 31.6088 32.5245C31.6085 33.0469 31.6789 33.4985 31.8199 33.8794C31.9718 34.2493 32.1835 34.5376 32.455 34.7442C32.7374 34.94 33.0632 35.0378 33.4326 35.0376C33.7367 35.0374 34.0029 34.972 34.2311 34.8413C34.4593 34.7105 34.6387 34.5363 34.7691 34.3186C34.9105 34.1009 34.9866 33.8614 34.9976 33.6002L37.2464 33.599C37.2353 34.0017 37.1427 34.4044 36.9687 34.8072C36.8056 35.2099 36.5555 35.5855 36.2186 35.934C35.8925 36.2824 35.4904 36.5655 35.0123 36.7835C34.5342 36.9905 33.9855 37.0942 33.3663 37.0945Z" fill="#2C0249"/>
<path d="M38.58 36.8632L38.5845 28.1623L40.7191 28.1612L40.865 29.7609C41.0282 29.2167 41.3109 28.7758 41.713 28.4382C42.1151 28.0897 42.6095 27.9153 43.1961 27.915C43.283 27.915 43.3645 27.9204 43.4405 27.9312C43.5274 27.9312 43.6089 27.942 43.6849 27.9637L43.6838 30.2002C43.5969 30.1785 43.5046 30.1676 43.4068 30.1677C43.309 30.1569 43.2167 30.1515 43.1298 30.1515C42.6952 30.1517 42.3095 30.2336 41.9727 30.397C41.6467 30.5495 41.3913 30.7836 41.2065 31.0993C41.0325 31.4041 40.9454 31.7851 40.9451 32.2422L40.9428 36.862L38.58 36.8632Z" fill="#2C0249"/>
<path d="M48.6146 37.0865C47.7346 37.087 46.9743 36.9024 46.3335 36.5327C45.7037 36.1521 45.2097 35.6246 44.8515 34.95C44.4934 34.2646 44.3146 33.4484 44.315 32.5016C44.3155 31.5766 44.4898 30.7711 44.8377 30.0853C45.1966 29.3995 45.6966 28.866 46.3377 28.4847C46.9789 28.1035 47.7285 27.9127 48.5867 27.9122C49.4884 27.9118 50.2487 28.1236 50.8677 28.5477C51.4867 28.9718 51.9481 29.581 52.2519 30.3753C52.5665 31.1587 52.7018 32.1055 52.6578 33.2156L46.1234 33.2189L46.1243 31.6028L50.3447 31.6006C50.3016 30.9368 50.1063 30.4635 49.7588 30.1807C49.4113 29.8871 49.0258 29.7403 48.6021 29.7406C48.3522 29.7407 48.1295 29.7789 47.9339 29.8552C47.7383 29.9315 47.559 30.0458 47.396 30.1983C47.233 30.3398 47.0971 30.5086 46.9884 30.7045C46.8796 30.8896 46.7981 31.1019 46.7436 31.3413C46.6892 31.5808 46.6619 31.8311 46.6617 32.0923L46.6613 32.9412C46.6611 33.4091 46.7478 33.8226 46.9214 34.1817C47.095 34.5298 47.3339 34.8018 47.6379 34.9975C47.942 35.1933 48.2896 35.291 48.6807 35.2908C48.9631 35.2907 49.213 35.2416 49.4303 35.1435C49.6585 35.0346 49.8487 34.8875 50.0009 34.7025C50.1639 34.5174 50.2835 34.3051 50.3597 34.0656L52.6084 34.0644C52.456 34.6631 52.2059 35.191 51.858 35.6483C51.5102 36.1056 51.0592 36.4595 50.505 36.7101C49.9617 36.9607 49.3315 37.0862 48.6146 37.0865ZM47.5933 26.8517L49.159 24.1083L51.7337 24.107L49.565 26.8506L47.5933 26.8517Z" fill="#2C0249"/>
<path d="M57.5297 37.0819C56.8127 37.0823 56.1664 36.8867 55.5909 36.4953C55.0262 36.0929 54.5756 35.5435 54.2392 34.8472C53.9137 34.1508 53.7511 33.3456 53.7516 32.4314C53.7521 31.539 53.91 30.7554 54.2254 30.0804C54.5408 29.4055 54.9756 28.8775 55.5298 28.4963C56.084 28.1042 56.7034 27.908 57.3878 27.9077C58.0504 27.9073 58.6044 28.0485 59.0497 28.3312C59.5058 28.614 59.8532 28.962 60.092 29.3754L59.7821 29.9306L59.9623 28.1675L62.1947 28.1663L62.1902 36.8183L59.9578 36.8195L59.7795 34.9259L60.0889 35.4318C59.8496 35.889 59.5127 36.281 59.0779 36.6077C58.6541 36.9235 58.138 37.0816 57.5297 37.0819ZM58.0685 34.9921C58.4596 34.9919 58.7964 34.8883 59.0789 34.6814C59.3724 34.4636 59.5952 34.1642 59.7475 33.7832C59.9107 33.3914 59.9924 32.9397 59.9926 32.4282C59.9929 31.9058 59.9117 31.4542 59.7489 31.0734C59.597 30.6817 59.3745 30.3825 59.0813 30.1759C58.7989 29.9584 58.4622 29.8497 58.0712 29.8499C57.6801 29.8501 57.3378 29.9591 57.0444 30.1769C56.7619 30.3839 56.539 30.6833 56.3758 31.0751C56.2235 31.4561 56.1473 31.9078 56.147 32.4302C56.1467 32.9417 56.2225 33.3933 56.3744 33.785C56.5372 34.1658 56.7597 34.465 57.0421 34.6825C57.3353 34.8891 57.6774 34.9923 58.0685 34.9921Z" fill="#2C0249"/>
<path d="M67.4592 36.8156C66.9812 36.8158 66.5685 36.7181 66.221 36.5224C65.8734 36.3267 65.602 36.0493 65.4066 35.6902C65.2221 35.3312 65.13 34.9068 65.1303 34.4171L65.1349 25.455L67.4814 25.4537L67.477 34.0241C67.4769 34.1764 67.504 34.3125 67.5582 34.4321C67.6125 34.5409 67.6885 34.628 67.7862 34.6932C67.8948 34.7476 68.0143 34.7747 68.1447 34.7746L69.4972 34.7739L69.4961 36.8145L67.4592 36.8156ZM63.6986 30.0592L63.6996 28.1656L69.2562 28.1627L69.2552 30.0563L63.6986 30.0592Z" fill="#2C0249"/>
<path d="M74.6167 37.073C73.7368 37.0735 72.9764 36.8889 72.3357 36.5192C71.7058 36.1386 71.2118 35.611 70.8537 34.9365C70.4955 34.251 70.3167 33.4349 70.3172 32.4881C70.3177 31.5631 70.4919 30.7576 70.8399 30.0718C71.1987 29.386 71.6987 28.8525 72.3399 28.4712C72.981 28.09 73.7307 27.8992 74.5889 27.8987C75.4906 27.8982 76.2509 28.1101 76.8699 28.5342C77.4889 28.9583 77.9502 29.5675 78.254 30.3618C78.5686 31.1452 78.7039 32.092 78.6599 33.202L75.3927 33.2037L72.1256 33.2054L72.1264 31.5893L76.3468 31.5871C76.3037 30.9233 76.1085 30.45 75.761 30.1672C75.4135 29.8735 75.0279 29.7268 74.6042 29.727C74.3544 29.7272 74.1317 29.7654 73.9361 29.8417C73.7405 29.9179 73.5612 30.0323 73.3982 30.1848C73.2351 30.3263 73.0993 30.4951 72.9905 30.691C72.8818 30.8761 72.8002 31.0884 72.7458 31.3278C72.6913 31.5673 72.664 31.8176 72.6639 32.0788L72.6635 32.9276C72.6632 33.3956 72.7499 33.8091 72.9235 34.1682C73.0972 34.5163 73.336 34.7883 73.6401 34.984C73.9442 35.1797 74.2917 35.2775 74.6828 35.2773C74.9653 35.2772 75.2152 35.2281 75.4325 35.13C75.6607 35.0211 75.8509 34.874 76.003 34.6889C76.1661 34.5038 76.2857 34.2916 76.3619 34.0521L78.6106 34.0509C78.4582 34.6496 78.2081 35.1775 77.8602 35.6348C77.5123 36.0921 77.0613 36.446 76.5071 36.6966C75.9638 36.9472 75.3337 37.0727 74.6167 37.073Z" fill="#2C0249"/>
<path d="M83.9729 37.0682C83.2233 37.0686 82.5553 36.9057 81.9689 36.5795C81.3933 36.2533 80.9372 35.8019 80.6008 35.2253C80.2752 34.6486 80.1126 33.9849 80.113 33.2339L80.1156 28.157L82.4621 28.1558L82.4594 33.3143C82.4591 33.8258 82.6001 34.2393 82.8824 34.5548C83.1756 34.8702 83.5394 35.0278 83.974 35.0276C84.4085 35.0274 84.7671 34.8694 85.0497 34.5536C85.3432 34.2379 85.49 33.8243 85.4903 33.3128L85.493 28.1542L87.8395 28.153L87.8368 33.2299C87.8364 33.9917 87.6677 34.6611 87.3306 35.2381C87.0044 35.8042 86.548 36.2506 85.9612 36.5774C85.3852 36.9042 84.7225 37.0678 83.9729 37.0682Z" fill="#2C0249"/>
<path d="M89.8522 36.8366L89.8568 28.1356L91.9914 28.1345L92.1372 29.7343C92.3005 29.19 92.5831 28.7491 92.9853 28.4115C93.3874 28.0631 93.8818 27.8887 94.4684 27.8884C94.5553 27.8883 94.6368 27.8937 94.7128 27.9046C94.7997 27.9045 94.8812 27.9154 94.9572 27.9371L94.9561 30.1735C94.8692 30.1518 94.7768 30.141 94.6791 30.141C94.5813 30.1302 94.489 30.1248 94.4021 30.1249C93.9675 30.1251 93.5818 30.2069 93.245 30.3703C92.919 30.5229 92.6636 30.757 92.4787 31.0727C92.3048 31.3775 92.2177 31.7584 92.2174 32.2155L92.215 36.8353L89.8522 36.8366Z" fill="#2C0249"/>
<path d="M13.1453 15.9908L13.148 10.8322C13.1482 10.3098 13.0344 9.89635 12.8064 9.59175C12.5784 9.27626 12.2255 9.11864 11.7475 9.11889C11.4324 9.11906 11.1554 9.20082 10.9163 9.36419C10.6772 9.52756 10.487 9.76708 10.3456 10.0828C10.2151 10.3876 10.1497 10.7739 10.1495 11.2419L9.48222 9.57716C9.71075 8.80435 10.0696 8.19471 10.5586 7.74826C11.0586 7.3018 11.6562 7.07839 12.3515 7.07803C12.9924 7.07769 13.5464 7.21888 14.0133 7.5016C14.4912 7.77342 14.8549 8.15413 15.1045 8.64374C15.365 9.12245 15.4951 9.67741 15.4947 10.3086L15.4918 15.9895L13.1453 15.9908ZM7.8005 15.9935L7.80499 7.34158L9.89076 7.34049L10.1504 9.46254L10.147 15.9923L7.8005 15.9935ZM18.5553 15.9879L18.5579 10.8294C18.5582 10.2962 18.4444 9.87722 18.2164 9.57261C17.9884 9.26801 17.6354 9.11583 17.1574 9.11608C16.8424 9.11624 16.5545 9.19802 16.2937 9.3614C16.0437 9.52477 15.8481 9.7643 15.7067 10.08C15.5653 10.3848 15.4945 10.7657 15.4943 11.2228L14.8922 9.57434C15.1207 8.77977 15.485 8.16469 15.9849 7.72911C16.4849 7.29353 17.077 7.07557 17.7614 7.07521C18.4024 7.07488 18.9563 7.21607 19.4233 7.49878C19.8903 7.77061 20.254 8.15133 20.5145 8.64092C20.7749 9.13052 20.905 9.69637 20.9047 10.3385L20.9017 15.9867L18.5553 15.9879Z" fill="#2C0249"/>
<path d="M26.3205 16.2451C25.6035 16.2455 24.9572 16.0499 24.3817 15.6584C23.817 15.256 23.3664 14.7067 23.03 14.0104C22.7045 13.314 22.542 12.5088 22.5424 11.5946C22.5429 10.7022 22.7008 9.91854 23.0162 9.24363C23.3316 8.56872 23.7664 8.04067 24.3207 7.65948C24.8749 7.2674 25.4942 7.07119 26.1786 7.07083C26.8413 7.07049 27.3952 7.21168 27.8405 7.4944C28.2966 7.77712 28.644 8.1252 28.8828 8.53862L28.5729 9.09382L28.7531 7.33068L30.9855 7.32952L30.981 15.9815L28.7486 15.9826L28.5703 14.0891L28.8797 14.595C28.6404 15.0522 28.3035 15.4442 27.8688 15.7709C27.4449 16.0867 26.9288 16.2448 26.3205 16.2451ZM26.8593 14.1553C27.2504 14.1551 27.5872 14.0515 27.8698 13.8446C28.1632 13.6268 28.386 13.3274 28.5383 12.9464C28.7015 12.5545 28.7832 12.1028 28.7835 11.5913C28.7837 11.069 28.7025 10.6174 28.5397 10.2365C28.3878 9.84483 28.1653 9.54567 27.8721 9.33905C27.5898 9.12154 27.2531 9.01288 26.862 9.01308C26.4709 9.01329 26.1286 9.1223 25.8352 9.34011C25.5527 9.54703 25.3298 9.84643 25.1667 10.2383C25.0144 10.6193 24.9381 11.071 24.9378 11.5933C24.9376 12.1048 25.0134 12.5564 25.1652 12.9482C25.328 13.329 25.5505 13.6281 25.8329 13.8457C26.1261 14.0523 26.4682 14.1555 26.8593 14.1553Z" fill="#2C0249"/>
<path d="M33.0228 16.0131L33.0274 7.31213L35.162 7.31102L35.3078 8.91074C35.4711 8.36651 35.7537 7.9256 36.1559 7.58802C36.558 7.23956 37.0524 7.06517 37.639 7.06486C37.7259 7.06482 37.8074 7.07022 37.8834 7.08106C37.9703 7.08102 38.0518 7.09186 38.1278 7.11358L38.1267 9.35003C38.0398 9.32831 37.9474 9.31748 37.8497 9.31753C37.7519 9.3067 37.6596 9.3013 37.5726 9.30135C37.1381 9.30157 36.7524 9.3834 36.4156 9.54682C36.0896 9.69935 35.8342 9.93347 35.6493 10.2492C35.4754 10.554 35.3883 10.9349 35.388 11.392L35.3856 16.0118L33.0228 16.0131Z" fill="#2C0249"/>
<path d="M42.9108 16.2365C42.0743 16.2369 41.3465 16.0468 40.7275 15.6662C40.1085 15.2748 39.6254 14.7363 39.2781 14.0509C38.9308 13.3654 38.7574 12.5765 38.7579 11.6841C38.7584 10.7808 38.9272 9.98627 39.2643 9.30047C39.6123 8.60378 40.1014 8.05938 40.7317 7.66726C41.3728 7.26426 42.1279 7.06253 42.997 7.06208C43.7357 7.0617 44.3712 7.20828 44.9033 7.50185C45.4463 7.78452 45.8698 8.18697 46.1737 8.70919C46.4885 9.23141 46.6511 9.8571 46.6616 10.5863L44.4129 10.5874C44.4022 10.163 44.2666 9.81481 44.006 9.54287C43.7563 9.26004 43.4142 9.11874 42.9797 9.11897C42.6212 9.11916 42.3006 9.22815 42.0181 9.44596C41.7464 9.65287 41.5344 9.94682 41.3821 10.3278C41.2298 10.6979 41.1536 11.1441 41.1533 11.6665C41.153 12.1889 41.2234 12.6405 41.3644 13.0213C41.5163 13.3913 41.728 13.6796 41.9995 13.8862C42.2818 14.082 42.6077 14.1797 42.977 14.1795C43.2812 14.1794 43.5474 14.114 43.7756 13.9832C44.0038 13.8525 44.1831 13.6783 44.3136 13.4606C44.4549 13.2428 44.5311 13.0034 44.5421 12.7422L46.7908 12.741C46.7797 13.1437 46.6872 13.5464 46.5132 13.9492C46.35 14.3519 46.1 14.7275 45.763 15.0759C45.4369 15.4244 45.0348 15.7075 44.5567 15.9254C44.0786 16.1325 43.53 16.2361 42.9108 16.2365Z" fill="#2C0249"/>
<path d="M53.5996 15.9697L53.6023 10.8112C53.6025 10.2888 53.467 9.87532 53.1955 9.57074C52.9241 9.25527 52.5494 9.09767 52.0714 9.09792C51.7455 9.09808 51.4576 9.1853 51.2077 9.35955C50.9686 9.52292 50.7838 9.75156 50.6533 10.0455C50.5336 10.3394 50.4737 10.6822 50.4735 11.074L49.9202 9.55612C50.1488 8.76154 50.5185 8.14646 51.0293 7.71088C51.5401 7.2753 52.1322 7.05733 52.8058 7.05698C53.4576 7.05664 54.017 7.19783 54.4839 7.48054C54.9509 7.75237 55.3146 8.13309 55.5751 8.62268C55.8356 9.11228 55.9657 9.68357 55.9653 10.3365L55.9624 15.9685L53.5996 15.9697ZM48.1245 15.9726L48.1308 3.72922L50.4773 3.728L50.4709 15.9713L48.1245 15.9726Z" fill="#2C0249"/>
<path d="M61.9146 16.2266C61.0346 16.227 60.2743 16.0424 59.6335 15.6727C59.0037 15.2922 58.5096 14.7646 58.1515 14.09C57.7934 13.4046 57.6145 12.5885 57.615 11.6416C57.6155 10.7166 57.7897 9.91116 58.1377 9.22536C58.4966 8.53954 58.9966 8.00602 59.6377 7.62478C60.2788 7.24354 61.0285 7.0527 61.8867 7.05226C62.7884 7.05179 63.5487 7.26362 64.1677 7.68773C64.7867 8.11184 65.2481 8.72105 65.5519 9.51535C65.8665 10.2988 66.0018 11.2455 65.9578 12.3556L59.4234 12.359L59.4242 10.7429L63.6447 10.7407C63.6016 10.0768 63.4063 9.60353 63.0588 9.32075C62.7113 9.02709 62.3258 8.88037 61.9021 8.88059C61.6522 8.88072 61.4295 8.91892 61.2339 8.99521C61.0383 9.07149 60.859 9.18585 60.696 9.3383C60.533 9.47986 60.3971 9.64862 60.2883 9.84457C60.1796 10.0296 60.098 10.2419 60.0436 10.4813C59.9892 10.7208 59.9619 10.9711 59.9617 11.2323L59.9613 12.0812C59.961 12.5492 60.0477 12.9627 60.2214 13.3217C60.395 13.6699 60.6339 13.9418 60.9379 14.1376C61.242 14.3333 61.5896 14.4311 61.9807 14.4309C62.2631 14.4307 62.513 14.3816 62.7303 14.2836C62.9585 14.1746 63.1487 14.0276 63.3009 13.8425C63.4639 13.6574 63.5835 13.4451 63.6597 13.2057L65.9084 13.2045C65.756 13.8031 65.5059 14.3311 65.158 14.7883C64.8102 15.2456 64.3592 15.5995 63.805 15.8501C63.2617 16.1007 62.6316 16.2262 61.9146 16.2266ZM60.8933 5.99168L62.459 3.24836L65.0337 3.24703L62.865 5.99066L60.8933 5.99168Z" fill="#2C0249"/>
</svg>
